<?xml version="1.0" encoding="iso-8859-1"?>
<!-- Generator: Adobe Illustrator 19.0.0, SVG Export Plug-In . SVG Version: 6.00 Build 0)  -->
<svg version="1.1" id="Layer_1" xmlns="http://www.w3.org/2000/svg" xmlns:xlink="http://www.w3.org/1999/xlink" x="0px" y="0px"
	 viewBox="0 0 512 512" style="enable-background:new 0 0 512 512;" xml:space="preserve">
<path style="fill:#EC5565;" d="M512,256.006C512,397.402,397.394,512.004,256.004,512C114.606,512.004,0,397.402,0,256.006
	C-0.007,114.61,114.606,0,256.004,0C397.394,0,512,114.614,512,256.006z"/>
<path style="fill:#D94453;" d="M512,256.006c0-2.911-0.066-5.806-0.163-8.692c-1.781-1.723-109.169-109.764-110.422-110.428
	l-28.842-15.329c-2.667-2.72-42.606-41.547-42.606-41.547c-0.912-1.287-2.279-2.045-3.756-2.53c-0.123-0.052-0.263-0.06-0.39-0.107
	c-0.535-0.146-1.033-0.407-1.594-0.441c-0.149-0.01-0.298,0.028-0.447,0.029c-0.187-0.014-0.347-0.11-0.538-0.11h-134.4
	c-0.143,0-0.261,0.073-0.402,0.081c-0.134-0.005-0.253-0.082-0.388-0.081c-2.367,0.052-4.565,1.226-5.933,3.157l-17.984,25.426
	c-1.019,1.439-1.407,3.156-1.284,4.851l-52.066,26.539c-2.501,1.276-4.076,3.844-4.076,6.651v284.31
	c0,2.444,1.249,4.509,3.061,5.871c0.425,0.564,41.154,41.99,47.322,47.354c4.795,6.356,10.413,11.986,16.3,17.365
	c25.917,8.829,53.702,13.623,82.609,13.622C397.394,512.004,512,397.402,512,256.006z"/>
<path style="fill:#F4F6F9;" d="M401.327,136.868l-52.108-27.693c-0.1-1.323-0.546-2.622-1.342-3.747L329.902,80.01
	c-0.912-1.289-2.279-2.044-3.755-2.529c-0.123-0.053-0.262-0.06-0.389-0.108c-0.535-0.146-1.033-0.406-1.593-0.439
	c-0.15-0.01-0.298,0.028-0.447,0.028c-0.187-0.014-0.347-0.109-0.537-0.109H188.82c-0.143,0-0.261,0.073-0.402,0.081
	c-0.134-0.005-0.254-0.083-0.389-0.081c-2.366,0.051-4.563,1.225-5.93,3.156l-17.98,25.419c-1.018,1.438-1.407,3.154-1.283,4.849
	l-52.05,26.532c-2.5,1.276-4.075,3.841-4.075,6.649v284.225c0,4.126,3.342,7.465,7.465,7.465h283.648
	c4.123,0,7.465-3.339,7.465-7.465V143.457C405.289,140.694,403.765,138.158,401.327,136.868z M292.367,188.689l-26.523-35.703
	c21.781-21.679,45.606-45.443,57.044-57.04l10.173,14.389L292.367,188.689z M256,260.547l35.483,159.67h-70.965L256,260.547z
	 M255.998,213.723L237.7,189.39l18.298-24.623l18.288,24.621L255.998,213.723z M256.002,141.715
	c-16.72-16.647-37.212-37.089-50.003-49.933h100.007C293.217,104.625,272.725,125.066,256.002,141.715z M189.111,95.945
	c11.43,11.575,35.255,35.347,57.044,57.04l-26.538,35.703l-40.625-78.243c-0.003-0.007-0.003-0.016-0.006-0.023
	c-0.004-0.009-0.013-0.013-0.016-0.02l-0.034-0.067L189.111,95.945z M121.641,148.028l47.477-24.202l42.749,82.335
	c1.188,2.282,3.467,3.791,6.029,4.002c0.201,0.015,0.401,0.021,0.597,0.021c2.351,0,4.578-1.108,5.991-3.01l3.935-5.294
	l19.549,25.996l-42.741,192.341h-83.586C121.641,420.218,121.641,148.028,121.641,148.028z M390.359,420.218h-83.586l-42.74-192.34
	l19.535-25.993l3.93,5.291c1.414,1.903,3.642,3.01,5.991,3.01c0.197,0,0.397-0.007,0.594-0.021c2.566-0.204,4.844-1.721,6.032-4.002
	l43.215-83.214l47.028,24.993v272.276H390.359z"/>
<g>
</g>
<g>
</g>
<g>
</g>
<g>
</g>
<g>
</g>
<g>
</g>
<g>
</g>
<g>
</g>
<g>
</g>
<g>
</g>
<g>
</g>
<g>
</g>
<g>
</g>
<g>
</g>
<g>
</g>
</svg>
