<svg 
 xmlns="http://www.w3.org/2000/svg"
 xmlns:xlink="http://www.w3.org/1999/xlink"
 width="74px" height="54px">
<path fill-rule="evenodd"  fill="rgb(255, 158, 43)"
 d="M4.500,-0.000 C6.985,-0.000 8.1000,2.015 8.1000,4.500 C8.1000,6.985 6.985,8.1000 4.500,8.1000 C2.015,8.1000 -0.000,6.985 -0.000,4.500 C-0.000,2.015 2.015,-0.000 4.500,-0.000 Z"/>
<path fill-rule="evenodd"  fill="rgb(255, 158, 43)"
 d="M26.500,-0.000 C28.985,-0.000 30.1000,2.015 30.1000,4.500 C30.1000,6.985 28.985,8.1000 26.500,8.1000 C24.015,8.1000 21.1000,6.985 21.1000,4.500 C21.1000,2.015 24.015,-0.000 26.500,-0.000 Z"/>
<path fill-rule="evenodd"  fill="rgb(255, 158, 43)"
 d="M48.500,-0.000 C50.985,-0.000 52.1000,2.015 52.1000,4.500 C52.1000,6.985 50.985,8.1000 48.500,8.1000 C46.015,8.1000 43.1000,6.985 43.1000,4.500 C43.1000,2.015 46.015,-0.000 48.500,-0.000 Z"/>
<path fill-rule="evenodd"  fill="rgb(255, 158, 43)"
 d="M69.500,-0.000 C71.985,-0.000 73.1000,2.015 73.1000,4.500 C73.1000,6.985 71.985,8.1000 69.500,8.1000 C67.015,8.1000 64.1000,6.985 64.1000,4.500 C64.1000,2.015 67.015,-0.000 69.500,-0.000 Z"/>
<path fill-rule="evenodd"  fill="rgb(255, 158, 43)"
 d="M4.500,21.1000 C6.985,21.1000 8.1000,24.014 8.1000,26.500 C8.1000,28.985 6.985,30.1000 4.500,30.1000 C2.015,30.1000 -0.000,28.985 -0.000,26.500 C-0.000,24.014 2.015,21.1000 4.500,21.1000 Z"/>
<path fill-rule="evenodd"  fill="rgb(255, 158, 43)"
 d="M26.500,21.1000 C28.985,21.1000 30.1000,24.014 30.1000,26.500 C30.1000,28.985 28.985,30.1000 26.500,30.1000 C24.015,30.1000 21.1000,28.985 21.1000,26.500 C21.1000,24.014 24.015,21.1000 26.500,21.1000 Z"/>
<path fill-rule="evenodd"  fill="rgb(255, 158, 43)"
 d="M48.500,21.1000 C50.985,21.1000 52.1000,24.014 52.1000,26.500 C52.1000,28.985 50.985,30.1000 48.500,30.1000 C46.015,30.1000 43.1000,28.985 43.1000,26.500 C43.1000,24.014 46.015,21.1000 48.500,21.1000 Z"/>
<path fill-rule="evenodd"  fill="rgb(255, 158, 43)"
 d="M69.500,21.1000 C71.985,21.1000 73.1000,24.014 73.1000,26.500 C73.1000,28.985 71.985,30.1000 69.500,30.1000 C67.015,30.1000 64.1000,28.985 64.1000,26.500 C64.1000,24.014 67.015,21.1000 69.500,21.1000 Z"/>
<path fill-rule="evenodd"  fill="rgb(255, 158, 43)"
 d="M4.500,44.1000 C6.985,44.1000 8.1000,47.014 8.1000,49.500 C8.1000,51.985 6.985,53.1000 4.500,53.1000 C2.015,53.1000 -0.000,51.985 -0.000,49.500 C-0.000,47.014 2.015,44.1000 4.500,44.1000 Z"/>
<path fill-rule="evenodd"  fill="rgb(255, 158, 43)"
 d="M26.500,44.1000 C28.985,44.1000 30.1000,47.014 30.1000,49.500 C30.1000,51.985 28.985,53.1000 26.500,53.1000 C24.015,53.1000 21.1000,51.985 21.1000,49.500 C21.1000,47.014 24.015,44.1000 26.500,44.1000 Z"/>
<path fill-rule="evenodd"  fill="rgb(255, 158, 43)"
 d="M48.500,44.1000 C50.985,44.1000 52.1000,47.014 52.1000,49.500 C52.1000,51.985 50.985,53.1000 48.500,53.1000 C46.015,53.1000 43.1000,51.985 43.1000,49.500 C43.1000,47.014 46.015,44.1000 48.500,44.1000 Z"/>
<path fill-rule="evenodd"  fill="rgb(255, 158, 43)"
 d="M69.500,44.1000 C71.985,44.1000 73.1000,47.014 73.1000,49.500 C73.1000,51.985 71.985,53.1000 69.500,53.1000 C67.015,53.1000 64.1000,51.985 64.1000,49.500 C64.1000,47.014 67.015,44.1000 69.500,44.1000 Z"/>
</svg>