<svg 
 xmlns="http://www.w3.org/2000/svg"
 xmlns:xlink="http://www.w3.org/1999/xlink"
 width="74px" height="123px">
<path fill-rule="evenodd"  fill="rgb(255, 158, 43)"
 d="M4.500,113.1000 C6.985,113.1000 8.1000,116.014 8.1000,118.500 C8.1000,120.985 6.985,122.1000 4.500,122.1000 C2.015,122.1000 -0.000,120.985 -0.000,118.500 C-0.000,116.014 2.015,113.1000 4.500,113.1000 Z"/>
<path fill-rule="evenodd"  fill="rgb(255, 158, 43)"
 d="M26.500,113.1000 C28.985,113.1000 30.1000,116.014 30.1000,118.500 C30.1000,120.985 28.985,122.1000 26.500,122.1000 C24.015,122.1000 21.1000,120.985 21.1000,118.500 C21.1000,116.014 24.015,113.1000 26.500,113.1000 Z"/>
<path fill-rule="evenodd"  fill="rgb(255, 158, 43)"
 d="M48.500,113.1000 C50.985,113.1000 52.1000,116.014 52.1000,118.500 C52.1000,120.985 50.985,122.1000 48.500,122.1000 C46.015,122.1000 43.1000,120.985 43.1000,118.500 C43.1000,116.014 46.015,113.1000 48.500,113.1000 Z"/>
<path fill-rule="evenodd"  fill="rgb(255, 158, 43)"
 d="M69.500,113.1000 C71.985,113.1000 73.1000,116.014 73.1000,118.500 C73.1000,120.985 71.985,122.1000 69.500,122.1000 C67.015,122.1000 64.1000,120.985 64.1000,118.500 C64.1000,116.014 67.015,113.1000 69.500,113.1000 Z"/>
<path fill-rule="evenodd"  fill="rgb(255, 158, 43)"
 d="M4.500,-0.000 C6.985,-0.000 8.1000,2.014 8.1000,4.500 C8.1000,6.985 6.985,8.1000 4.500,8.1000 C2.015,8.1000 -0.000,6.985 -0.000,4.500 C-0.000,2.014 2.015,-0.000 4.500,-0.000 Z"/>
<path fill-rule="evenodd"  fill="rgb(255, 158, 43)"
 d="M26.500,-0.000 C28.985,-0.000 30.1000,2.014 30.1000,4.500 C30.1000,6.985 28.985,8.1000 26.500,8.1000 C24.015,8.1000 21.1000,6.985 21.1000,4.500 C21.1000,2.014 24.015,-0.000 26.500,-0.000 Z"/>
<path fill-rule="evenodd"  fill="rgb(255, 158, 43)"
 d="M48.500,-0.000 C50.985,-0.000 52.1000,2.014 52.1000,4.500 C52.1000,6.985 50.985,8.1000 48.500,8.1000 C46.015,8.1000 43.1000,6.985 43.1000,4.500 C43.1000,2.014 46.015,-0.000 48.500,-0.000 Z"/>
<path fill-rule="evenodd"  fill="rgb(255, 158, 43)"
 d="M69.500,-0.000 C71.985,-0.000 73.1000,2.014 73.1000,4.500 C73.1000,6.985 71.985,8.1000 69.500,8.1000 C67.015,8.1000 64.1000,6.985 64.1000,4.500 C64.1000,2.014 67.015,-0.000 69.500,-0.000 Z"/>
<path fill-rule="evenodd"  fill="rgb(255, 158, 43)"
 d="M4.500,22.1000 C6.985,22.1000 8.1000,25.014 8.1000,27.500 C8.1000,29.985 6.985,31.1000 4.500,31.1000 C2.015,31.1000 -0.000,29.985 -0.000,27.500 C-0.000,25.014 2.015,22.1000 4.500,22.1000 Z"/>
<path fill-rule="evenodd"  fill="rgb(255, 158, 43)"
 d="M26.500,22.1000 C28.985,22.1000 30.1000,25.014 30.1000,27.500 C30.1000,29.985 28.985,31.1000 26.500,31.1000 C24.015,31.1000 21.1000,29.985 21.1000,27.500 C21.1000,25.014 24.015,22.1000 26.500,22.1000 Z"/>
<path fill-rule="evenodd"  fill="rgb(255, 158, 43)"
 d="M48.500,22.1000 C50.985,22.1000 52.1000,25.014 52.1000,27.500 C52.1000,29.985 50.985,31.1000 48.500,31.1000 C46.015,31.1000 43.1000,29.985 43.1000,27.500 C43.1000,25.014 46.015,22.1000 48.500,22.1000 Z"/>
<path fill-rule="evenodd"  fill="rgb(255, 158, 43)"
 d="M69.500,22.1000 C71.985,22.1000 73.1000,25.014 73.1000,27.500 C73.1000,29.985 71.985,31.1000 69.500,31.1000 C67.015,31.1000 64.1000,29.985 64.1000,27.500 C64.1000,25.014 67.015,22.1000 69.500,22.1000 Z"/>
<path fill-rule="evenodd"  fill="rgb(255, 158, 43)"
 d="M4.500,43.1000 C6.985,43.1000 8.1000,46.014 8.1000,48.500 C8.1000,50.985 6.985,52.1000 4.500,52.1000 C2.015,52.1000 -0.000,50.985 -0.000,48.500 C-0.000,46.014 2.015,43.1000 4.500,43.1000 Z"/>
<path fill-rule="evenodd"  fill="rgb(255, 158, 43)"
 d="M26.500,43.1000 C28.985,43.1000 30.1000,46.014 30.1000,48.500 C30.1000,50.985 28.985,52.1000 26.500,52.1000 C24.015,52.1000 21.1000,50.985 21.1000,48.500 C21.1000,46.014 24.015,43.1000 26.500,43.1000 Z"/>
<path fill-rule="evenodd"  fill="rgb(255, 158, 43)"
 d="M48.500,43.1000 C50.985,43.1000 52.1000,46.014 52.1000,48.500 C52.1000,50.985 50.985,52.1000 48.500,52.1000 C46.015,52.1000 43.1000,50.985 43.1000,48.500 C43.1000,46.014 46.015,43.1000 48.500,43.1000 Z"/>
<path fill-rule="evenodd"  fill="rgb(255, 158, 43)"
 d="M69.500,43.1000 C71.985,43.1000 73.1000,46.014 73.1000,48.500 C73.1000,50.985 71.985,52.1000 69.500,52.1000 C67.015,52.1000 64.1000,50.985 64.1000,48.500 C64.1000,46.014 67.015,43.1000 69.500,43.1000 Z"/>
<path fill-rule="evenodd"  fill="rgb(255, 158, 43)"
 d="M4.500,65.1000 C6.985,65.1000 8.1000,68.015 8.1000,70.500 C8.1000,72.985 6.985,74.1000 4.500,74.1000 C2.015,74.1000 -0.000,72.985 -0.000,70.500 C-0.000,68.015 2.015,65.1000 4.500,65.1000 Z"/>
<path fill-rule="evenodd"  fill="rgb(255, 158, 43)"
 d="M26.500,65.1000 C28.985,65.1000 30.1000,68.015 30.1000,70.500 C30.1000,72.985 28.985,74.1000 26.500,74.1000 C24.015,74.1000 21.1000,72.985 21.1000,70.500 C21.1000,68.015 24.015,65.1000 26.500,65.1000 Z"/>
<path fill-rule="evenodd"  fill="rgb(255, 158, 43)"
 d="M48.500,65.1000 C50.985,65.1000 52.1000,68.015 52.1000,70.500 C52.1000,72.985 50.985,74.1000 48.500,74.1000 C46.015,74.1000 43.1000,72.985 43.1000,70.500 C43.1000,68.015 46.015,65.1000 48.500,65.1000 Z"/>
<path fill-rule="evenodd"  fill="rgb(255, 158, 43)"
 d="M69.500,65.1000 C71.985,65.1000 73.1000,68.015 73.1000,70.500 C73.1000,72.985 71.985,74.1000 69.500,74.1000 C67.015,74.1000 64.1000,72.985 64.1000,70.500 C64.1000,68.015 67.015,65.1000 69.500,65.1000 Z"/>
<path fill-rule="evenodd"  fill="rgb(255, 158, 43)"
 d="M4.500,88.1000 C6.985,88.1000 8.1000,91.015 8.1000,93.500 C8.1000,95.985 6.985,97.1000 4.500,97.1000 C2.015,97.1000 -0.000,95.985 -0.000,93.500 C-0.000,91.015 2.015,88.1000 4.500,88.1000 Z"/>
<path fill-rule="evenodd"  fill="rgb(255, 158, 43)"
 d="M26.500,88.1000 C28.985,88.1000 30.1000,91.015 30.1000,93.500 C30.1000,95.985 28.985,97.1000 26.500,97.1000 C24.015,97.1000 21.1000,95.985 21.1000,93.500 C21.1000,91.015 24.015,88.1000 26.500,88.1000 Z"/>
<path fill-rule="evenodd"  fill="rgb(255, 158, 43)"
 d="M48.500,88.1000 C50.985,88.1000 52.1000,91.015 52.1000,93.500 C52.1000,95.985 50.985,97.1000 48.500,97.1000 C46.015,97.1000 43.1000,95.985 43.1000,93.500 C43.1000,91.015 46.015,88.1000 48.500,88.1000 Z"/>
<path fill-rule="evenodd"  fill="rgb(255, 158, 43)"
 d="M69.500,88.1000 C71.985,88.1000 73.1000,91.015 73.1000,93.500 C73.1000,95.985 71.985,97.1000 69.500,97.1000 C67.015,97.1000 64.1000,95.985 64.1000,93.500 C64.1000,91.015 67.015,88.1000 69.500,88.1000 Z"/>
</svg>