<svg 
 xmlns="http://www.w3.org/2000/svg"
 xmlns:xlink="http://www.w3.org/1999/xlink"
 width="125px" height="9px">
<path fill-rule="evenodd"  fill="rgb(255, 158, 43)"
 d="M4.500,-0.000 C6.985,-0.000 8.1000,2.014 8.1000,4.500 C8.1000,6.985 6.985,8.1000 4.500,8.1000 C2.015,8.1000 -0.000,6.985 -0.000,4.500 C-0.000,2.014 2.015,-0.000 4.500,-0.000 Z"/>
<path fill-rule="evenodd"  fill="rgb(255, 158, 43)"
 d="M26.500,-0.000 C28.985,-0.000 30.1000,2.014 30.1000,4.500 C30.1000,6.985 28.985,8.1000 26.500,8.1000 C24.015,8.1000 21.1000,6.985 21.1000,4.500 C21.1000,2.014 24.015,-0.000 26.500,-0.000 Z"/>
<path fill-rule="evenodd"  fill="rgb(255, 158, 43)"
 d="M49.500,-0.000 C51.985,-0.000 53.1000,2.014 53.1000,4.500 C53.1000,6.985 51.985,8.1000 49.500,8.1000 C47.015,8.1000 44.1000,6.985 44.1000,4.500 C44.1000,2.014 47.015,-0.000 49.500,-0.000 Z"/>
<path fill-rule="evenodd"  fill="rgb(255, 158, 43)"
 d="M75.500,-0.000 C77.985,-0.000 79.1000,2.014 79.1000,4.500 C79.1000,6.985 77.985,8.1000 75.500,8.1000 C73.015,8.1000 70.1000,6.985 70.1000,4.500 C70.1000,2.014 73.015,-0.000 75.500,-0.000 Z"/>
<path fill-rule="evenodd"  fill="rgb(255, 158, 43)"
 d="M97.500,-0.000 C99.985,-0.000 101.1000,2.014 101.1000,4.500 C101.1000,6.985 99.985,8.1000 97.500,8.1000 C95.015,8.1000 92.1000,6.985 92.1000,4.500 C92.1000,2.014 95.015,-0.000 97.500,-0.000 Z"/>
<path fill-rule="evenodd"  fill="rgb(255, 158, 43)"
 d="M120.500,-0.000 C122.985,-0.000 124.1000,2.014 124.1000,4.500 C124.1000,6.985 122.985,8.1000 120.500,8.1000 C118.015,8.1000 115.1000,6.985 115.1000,4.500 C115.1000,2.014 118.015,-0.000 120.500,-0.000 Z"/>
</svg>