<svg 
 xmlns="http://www.w3.org/2000/svg"
 xmlns:xlink="http://www.w3.org/1999/xlink"
 width="88px" height="102px">
<defs>
<filter filterUnits="userSpaceOnUse" id="Filter_0" x="0px" y="0px" width="88px" height="102px"  >
    <feOffset in="SourceAlpha" dx="0" dy="5" />
    <feGaussianBlur result="blurOut" stdDeviation="2.236" />
    <feFlood flood-color="rgb(254, 62, 87)" result="floodOut" />
    <feComposite operator="atop" in="floodOut" in2="blurOut" />
    <feComponentTransfer><feFuncA type="linear" slope="0.4"/></feComponentTransfer>
    <feMerge>
    <feMergeNode/>
    <feMergeNode in="SourceGraphic"/>
  </feMerge>
</filter>

</defs>
<g filter="url(#Filter_0)">
<path fill-rule="evenodd"  fill="rgb(254, 62, 87)"
 d="M82.188,79.452 L80.123,78.925 C80.156,78.796 83.314,65.876 76.124,55.338 C71.085,47.953 62.217,43.419 49.768,41.862 C37.141,40.283 28.096,35.503 22.882,27.656 C14.825,15.529 18.863,0.628 19.039,0.000 L21.092,0.574 C21.051,0.720 17.148,15.189 24.667,26.490 C29.523,33.789 38.057,38.248 50.032,39.746 C63.126,41.384 72.501,46.232 77.897,54.155 C85.626,65.501 82.332,78.888 82.188,79.452 ZM64.037,66.700 C71.766,78.047 68.473,91.433 68.329,91.997 L66.263,91.471 C66.296,91.342 69.455,78.421 62.264,67.883 C57.225,60.499 48.358,55.964 35.908,54.408 C23.282,52.828 14.236,48.049 9.023,40.202 C0.966,28.075 5.004,13.174 5.180,12.546 L7.232,13.120 C7.192,13.265 3.288,27.735 10.807,39.035 C15.663,46.334 24.198,50.794 36.173,52.292 C49.266,53.929 58.641,58.778 64.037,66.700 Z"/>
</g>
</svg>